<svg width="64" height="64" viewBox="0 0 64 64" fill="none" xmlns="http://www.w3.org/2000/svg">
<circle cx="32" cy="32" r="32" fill="#7257FF"/>
<path d="M18.6668 22.0001C18.6668 20.1591 20.1591 18.6668 22.0001 18.6668H25.3334C27.1744 18.6668 28.6668 20.1592 28.6668 22.0001V25.3334C28.6668 27.1744 27.1744 28.6668 25.3334 28.6668H22.0001C20.1591 28.6668 18.6667 27.1744 18.6667 25.3334L18.6668 22.0001Z" stroke="white" stroke-width="1.5"/>
<path d="M35.3334 22.0001C35.3334 20.1591 36.8258 18.6668 38.6668 18.6668L42.0001 18.6667C43.841 18.6667 45.3334 20.1591 45.3334 22.0001L45.3334 25.3334C45.3334 27.1744 43.8411 28.6668 42.0001 28.6668H38.6668C36.8258 28.6668 35.3334 27.1744 35.3334 25.3334V22.0001Z" stroke="white" stroke-width="1.5"/>
<path d="M18.6668 38.6668C18.6668 36.8258 20.1592 35.3334 22.0001 35.3334H25.3334C27.1744 35.3334 28.6668 36.8258 28.6668 38.6668V42.0001C28.6668 43.841 27.1744 45.3334 25.3334 45.3334H22.0001C20.1592 45.3334 18.6668 43.841 18.6668 42.0001V38.6668Z" stroke="white" stroke-width="1.5"/>
<path d="M35.3334 38.6668C35.3334 36.8258 36.8258 35.3334 38.6668 35.3334H42.0001C43.841 35.3334 45.3334 36.8258 45.3334 38.6668L45.3334 42.0001C45.3334 43.841 43.8411 45.3334 42.0001 45.3334H38.6668C36.8258 45.3334 35.3334 43.841 35.3334 42.0001V38.6668Z" stroke="white" stroke-width="1.5"/>
</svg>
