<svg width="64" height="64" viewBox="0 0 64 64" fill="none" xmlns="http://www.w3.org/2000/svg">
<circle cx="32" cy="32" r="32" fill="#7257FF"/>
<path d="M22.0001 44.0324C22.0001 44.0324 28.2038 36.6297 32.0001 32.8334C35.7964 29.0371 37.8334 29.5001 39.9666 30.98C42.0998 32.4599 45.2067 36.1667 45.2067 36.1667M29.0371 26.8149C29.0371 28.0422 28.0422 29.0371 26.8149 29.0371C25.5876 29.0371 24.5926 28.0422 24.5926 26.8149C24.5926 25.5876 25.5876 24.5927 26.8149 24.5927C28.0422 24.5927 29.0371 25.5876 29.0371 26.8149ZM18.6667 40.3334C18.6667 43.0948 20.9053 45.3334 23.6667 45.3334H40.3334C43.0949 45.3334 45.3334 43.0948 45.3334 40.3334V23.6667C45.3334 20.9053 43.0949 18.6667 40.3334 18.6667H23.6668C20.9053 18.6667 18.6668 20.9053 18.6668 23.6667L18.6667 40.3334Z" stroke="white" stroke-width="1.5" stroke-linejoin="round"/>
</svg>
